<?xml version="1.0" encoding="utf-8"?>
<!-- Generator: Adobe Illustrator 23.0.0, SVG Export Plug-In . SVG Version: 6.00 Build 0)  -->
<svg version="1.1" id="Layer_1" xmlns="http://www.w3.org/2000/svg" xmlns:xlink="http://www.w3.org/1999/xlink" x="0px" y="0px"
	 viewBox="0 0 381.32 374.18" style="enable-background:new 0 0 381.32 374.18;" xml:space="preserve">
<style type="text/css">
	.st0{fill:#EFEFEF;}
	.st1{fill:#694F9C;}
	.st2{fill:#727272;}
</style>
<g>
	<g>
		<path class="st0" d="M303.3,65.43c-1.83-1.56-4.56-1.33-6.11,0.49c-1.55,1.82-1.33,4.56,0.49,6.11
			c16.16,13.76,19.32,37.79,7.17,54.73c-1.33,1.85-0.99,4.38,0.71,5.82c0.09,0.07,0.19,0.15,0.29,0.22c1.94,1.4,4.66,0.95,6.06-0.99
			C326.66,111.25,322.88,82.09,303.3,65.43z"/>
		<path class="st0" d="M317.42,51.65c-1.9-1.62-4.76-1.39-6.38,0.51c-1.62,1.9-1.39,4.76,0.52,6.38
			c23.14,19.69,27.65,54.09,10.25,78.32c-1.38,1.94-1.04,4.58,0.75,6.09c0.09,0.08,0.19,0.16,0.29,0.23c2.03,1.46,4.85,1,6.31-1.04
			C349.29,114.12,344.13,74.37,317.42,51.65z"/>
		<path class="st0" d="M360.91,94.45c-2.64-20.83-12.98-39.85-29.1-53.57c-1.91-1.62-4.76-1.39-6.38,0.51
			c-1.62,1.91-1.39,4.76,0.51,6.38c14.39,12.24,23.63,29.23,25.99,47.82c2.34,18.44-2.26,36.82-12.97,51.74
			c-1.39,1.93-1.04,4.58,0.74,6.09c0.09,0.08,0.19,0.16,0.29,0.24c2.03,1.47,4.85,1,6.32-1.04
			C358.36,135.84,363.55,115.18,360.91,94.45z"/>
	</g>
</g>
<path class="st0" d="M193.78,291.58h25.44l4.74-23.4h-18.74l20.24-151.4c-16.66-15.5-42.32-21.13-66.18-21.13
	c-44.18,0-68.78,12.3-87.91,31.88l29.15,37.81c11.84-13.21,27.79-22.32,51.02-22.32c23.69,0,35.07,9.56,35.07,25.51
	c0,4.55-0.45,8.2-1.37,12.3l-3.19,14.12h-56.48c-27.33,0-51.47,7.29-69.24,24.6c-13.66,13.66-21.41,32.8-21.41,56.02
	c0,35.98,26.42,62.4,67.87,62.4c25.96,0,44.18-10.02,57.39-23.23l-4.1,20.95h29.47L193.78,291.58z M171.58,247.77
	c-2.28,11.84-6.83,22.77-14.12,30.06c-8.65,8.65-21.41,14.58-36.9,14.58c-20.5,0-30.06-9.11-30.06-22.32
	c0-20.95,15.03-36.44,40.54-36.44h43.27L171.58,247.77z"/>
<path class="st0" d="M235.38,342.93h-44.96l8.92-45.64h44.96L235.38,342.93z M244.7,261.03h-31.92l22.65-168.15h52.51L244.7,261.03z
	"/>
</svg>
