<?xml version="1.0" encoding="utf-8"?>
<!-- Generator: Adobe Illustrator 23.0.0, SVG Export Plug-In . SVG Version: 6.00 Build 0)  -->
<svg version="1.1" id="Layer_1" xmlns="http://www.w3.org/2000/svg" xmlns:xlink="http://www.w3.org/1999/xlink" x="0px" y="0px"
	 viewBox="0 0 804.26 372.26" style="enable-background:new 0 0 804.26 372.26;" xml:space="preserve">
<style type="text/css">
	.st0{fill:#E2B85C;}
	.st1{fill:#005B86;}
	.st2{fill:#C38729;}
	.st3{fill:#E8CC83;}
</style>
<g>
	<g>
		<path class="st2" d="M300.54,60.36c-1.83-1.56-4.56-1.33-6.11,0.49c-1.55,1.82-1.33,4.56,0.49,6.11
			c16.16,13.76,19.32,37.79,7.17,54.73c-1.33,1.85-0.99,4.38,0.71,5.82c0.09,0.07,0.19,0.15,0.29,0.22c1.94,1.4,4.66,0.95,6.06-0.99
			C323.9,106.18,320.12,77.02,300.54,60.36z"/>
		<path class="st0" d="M314.67,46.58c-1.9-1.62-4.76-1.39-6.38,0.51c-1.62,1.9-1.39,4.76,0.52,6.38
			c23.14,19.69,27.65,54.09,10.25,78.32c-1.38,1.94-1.04,4.58,0.75,6.09c0.09,0.08,0.19,0.16,0.29,0.23c2.03,1.46,4.85,1,6.31-1.04
			C346.53,109.05,341.37,69.3,314.67,46.58z"/>
		<path class="st3" d="M358.15,89.39c-2.64-20.83-12.98-39.85-29.1-53.57c-1.91-1.62-4.76-1.39-6.38,0.51
			c-1.62,1.91-1.39,4.76,0.51,6.38c14.39,12.24,23.63,29.23,25.99,47.82c2.34,18.44-2.26,36.82-12.97,51.74
			c-1.39,1.93-1.04,4.58,0.74,6.09c0.09,0.08,0.19,0.16,0.29,0.24c2.03,1.47,4.85,1,6.32-1.04
			C355.6,130.77,360.79,110.12,358.15,89.39z"/>
	</g>
</g>
<g>
	<path class="st1" d="M405.3,258.29H305.18c-0.64,4.49-1.28,7.7-1.28,11.87c0,16.37,8.98,27.92,28.56,27.92
		c16.04,0,28.24-6.1,39.79-17.01l20.86,26.31c-17.33,16.37-40.11,24.39-65.14,24.39c-29.2,0-61.93-14.76-61.93-58.72
		c0-56.15,27.6-112.31,85.03-112.31c35.62,0,59.36,23.42,59.36,59.68C410.43,231.66,408.19,245.13,405.3,258.29z M348.82,193.47
		c-17.01,0-31.13,11.23-38.51,38.18h61.29c0.64-3.53,0.96-7.7,0.96-11.23C372.57,203.1,363.26,193.47,348.82,193.47z"/>
	<path class="st1" d="M517.6,206.95c-2.89-3.53-8.02-10.27-18.29-10.27c-15.72,0-29.84,12.83-33.69,32.09L445.4,329.84h-39.79
		l33.37-167.18h38.5l-3.53,16.36c9.3-11.23,25.03-18.29,42.36-18.29c16.04,0,26.63,5.13,35.62,15.72L517.6,206.95z"/>
	<path class="st1" d="M640.17,197.96h-27.6l-16.36,82.14c-0.64,2.57-0.64,4.49-0.64,6.1c0,6.74,4.17,10.27,12.83,10.27h14.44
		l-6.74,33.37h-20.54c-23.1,0-40.43-13.48-40.43-36.26c0-5.78,0.64-10.27,1.28-13.8l16.37-81.82h-17.01l6.1-30.8h17.01l9.95-49.42
		h39.79l-9.95,49.42h27.6L640.17,197.96z"/>
	<path class="st1" d="M752.47,205.34c-7.7-8.02-19.89-11.87-31.77-11.87c-20.21,0-29.2,9.95-29.2,20.21
		c0,7.06,5.13,10.91,15.4,12.51l21.5,3.53c29.84,4.81,40.43,20.22,40.43,43.32c0,16.69-7.06,29.84-17.97,40.43
		c-13.48,13.16-36.58,18.29-58.08,18.29c-29.84,0-49.74-8.98-64.5-25.03l28.56-25.03c8.34,9.63,19.57,16.04,38.5,16.04
		c22.78,0,34.01-10.91,34.01-20.86c0-8.98-6.1-12.19-15.72-13.8l-21.82-3.53c-30.48-5.13-40.11-22.14-40.11-37.86
		c0-15.4,5.78-30.48,17.01-41.71c12.51-12.51,31.77-19.25,55.51-19.25c23.75,0,41.07,5.78,55.51,20.54L752.47,205.34z"/>
</g>
<path class="st1" d="M191.02,286.51h25.44l4.74-23.4h-18.74l20.24-151.4c-16.66-15.5-42.32-21.13-66.18-21.13
	c-44.18,0-68.78,12.3-87.91,31.88l29.15,37.81c11.84-13.21,27.79-22.32,51.02-22.32c23.69,0,35.07,9.56,35.07,25.51
	c0,4.55-0.45,8.2-1.37,12.3l-3.19,14.12h-56.48c-27.33,0-51.47,7.29-69.24,24.6c-13.66,13.66-21.41,32.8-21.41,56.02
	c0,35.98,26.42,62.4,67.87,62.4c25.96,0,44.18-10.02,57.39-23.23l-4.1,20.95h29.47L191.02,286.51z M168.82,242.7
	c-2.28,11.84-6.83,22.77-14.12,30.06c-8.65,8.65-21.41,14.58-36.9,14.58c-20.5,0-30.06-9.11-30.06-22.32
	c0-20.95,15.03-36.44,40.54-36.44h43.27L168.82,242.7z"/>
<path class="st2" d="M232.62,337.86h-44.96l8.92-45.64h44.96L232.62,337.86z M241.94,255.96h-31.92l22.65-168.15h52.51
	L241.94,255.96z"/>
</svg>
