<?xml version="1.0" encoding="utf-8"?>
<!-- Generator: Adobe Illustrator 23.0.0, SVG Export Plug-In . SVG Version: 6.00 Build 0)  -->
<svg version="1.1" id="Layer_1" xmlns="http://www.w3.org/2000/svg" xmlns:xlink="http://www.w3.org/1999/xlink" x="0px" y="0px"
	 viewBox="0 0 841.89 425.2" style="enable-background:new 0 0 841.89 425.2;" xml:space="preserve">
<style type="text/css">
	.st0{fill:#BFBFBF;}
	.st1{fill:#FFFFFF;}
	.st2{fill:#C38729;}
	.st3{fill:#E2B85C;}
	.st4{fill:#E8CC83;}
	.st5{fill:#005B86;}
</style>
<path class="st2" d="M294.59,112.92c-2.67-0.42-5.17,1.4-5.59,4.07c-0.42,2.66,1.4,5.17,4.06,5.58
	c23.62,3.74,40.77,24.99,39.04,48.41c-0.19,2.55,1.62,4.79,4.1,5.18c0.13,0.02,0.27,0.04,0.41,0.05c2.69,0.21,5.03-1.82,5.24-4.51
	C343.96,143.25,323.2,117.43,294.59,112.92z"/>
<path class="st3" d="M300.08,91.37c-2.77-0.44-5.4,1.46-5.83,4.24c-0.44,2.78,1.46,5.39,4.25,5.83
	c33.81,5.35,58.35,35.78,55.85,69.29c-0.19,2.68,1.69,5.01,4.29,5.42c0.13,0.02,0.28,0.04,0.42,0.05c2.81,0.21,5.25-1.89,5.46-4.71
	C367.41,132.72,339.1,97.53,300.08,91.37z"/>
<path class="st4" d="M367.03,106.99c-14.77-18.47-35.89-30.69-59.44-34.42c-2.78-0.44-5.4,1.46-5.83,4.24
	c-0.44,2.79,1.46,5.4,4.24,5.84c21.03,3.32,39.88,14.23,53.07,30.72c13.08,16.36,19.45,36.73,17.91,57.36
	c-0.2,2.68,1.69,5.01,4.28,5.42c0.13,0.02,0.28,0.04,0.42,0.05c2.81,0.22,5.25-1.89,5.47-4.71
	C388.88,148.28,381.74,125.37,367.03,106.99z"/>
<path class="st1" d="M727.76,215.87c-0.56,0-1.09,0.02-1.64,0.02l-21.92,31.6c3.93-1.07,8-1.61,12.23-1.61
	c17.63,0,24,7.46,19.13,22.37l-2.31,7.09h-33.51c-15.8,0-29.09,3.86-39.86,11.59c-0.94,0.68-1.82,1.38-2.7,2.09l50.49-73.08h-37.91
	l-57.71,88.8l-0.68-88.8h-37.9l1,21.12c-0.6-1.38-1.27-2.7-2.04-3.92c-7.28-11.46-20.13-17.18-38.54-17.18
	c-18.24,0-34.66,5.72-49.24,17.18c-9.06,7.11-16.86,16.93-23.41,29.43c3.2-13.74,1.7-25.13-4.49-34.17
	c-5.75-8.36-16.11-12.55-31.06-12.55c-16.98,0-33.1,6-48.38,18c-4.97-12-15.67-18-32.1-18c-14.23,0-27.64,4.91-40.2,14.73
	l4.61-14.62h-34.76l-44.92,143.66h35.47l26.92-85.93c2.79-8.91,7.45-15.65,13.99-20.19c5.38-3.82,11.36-5.72,17.93-5.72
	c6.38,0,11.07,1.91,14.06,5.72c3.67,4.55,4.11,11.28,1.31,20.19l-27.02,85.93h35.74l27.35-86.75c2.69-8.55,7.37-15.09,14.03-19.64
	c5.29-3.63,11.09-5.45,17.4-5.45c6.31,0,10.93,1.91,13.87,5.72c3.61,4.55,4,11.28,1.18,20.19l-27.18,85.93h35.74l13.07-41.22
	c-0.08,0.87-0.15,1.72-0.18,2.53c-0.48,8.91,1.36,16.54,5.53,22.9c7.39,11.64,20.17,17.46,38.34,17.46
	c18.36,0,34.94-5.82,49.76-17.46c8.22-6.36,14.93-13.99,20.16-22.9c4.75-7.99,9.31-18.81,13.68-32.45
	c2.21-6.9,3.84-13.27,4.92-19.14l4.27,90.28h28.13l29.27-42.37c-4.05,12.94-3.49,23.44,1.77,31.47
	c5.34,8.19,16.01,12.28,32.02,12.28c14.18,0,27.3-4.54,39.37-13.64l-4.01,12.28h34.66l30.63-93.58
	C783.04,232.6,768.26,215.87,727.76,215.87z M535.3,288.48c-5.64,17.64-12.03,29.17-19.17,34.63c-5.48,4.19-11.64,6.27-18.47,6.27
	c-6.65,0-11.38-2.09-14.19-6.27c-3.66-5.46-2.68-16.99,2.95-34.63c5.57-17.45,11.92-28.89,19.06-34.35
	c5.48-4.18,11.55-6.27,18.21-6.27c6.85,0,11.68,2.09,14.49,6.27C541.84,259.59,540.88,271.04,535.3,288.48z M722.83,307.26
	c-2.37,7.27-5.19,12.55-8.43,15.82c-5.94,6-14.97,9.01-27.1,9.01c-13.57,0-18.58-5.46-15.04-16.37c3.49-10.72,11.85-16.1,25.07-16.1
	h27.98L722.83,307.26z"/>
<path class="st1" d="M159.43,273.3l-21.7-2.18c-9.55-0.91-13.21-5-10.97-12.26c2.79-9.08,10.93-13.62,24.41-13.62
	c13.66,0,23.18,2.7,28.64,8.02c6.29-8.9,12.76-16.2,19.17-22.27c0.52-0.51,1.03-1.03,1.55-1.52c1.04-1.08,2.06-2.05,3.07-2.97
	c-9.3-6.93-23.58-10.4-42.9-10.4c-15.3,0-29.23,3.81-41.78,11.44c-13.68,8.35-22.7,19.61-27.05,33.78
	c-7.31,23.79,2.43,37.05,29.24,39.77l21.69,2.18c9.72,0.91,13.37,5.27,10.96,13.07c-3.04,9.81-12.91,14.71-29.62,14.71
	c-16.36,0-27.62-4.45-33.79-13.35l-30.29,23.17c5.67,8.17,13.29,13.8,22.87,16.89c7.63,2.36,18.07,3.54,31.33,3.54
	c17.61,0,33.04-3.83,46.3-11.44c14.16-8.18,23.57-19.79,28.25-34.86C196.59,289.91,186.79,276.02,159.43,273.3z"/>
<g>
	<path class="st2" d="M234.58,217.63c8.6,0.36,15.88-6.32,16.24-14.92c0.37-8.6-6.31-15.87-14.92-16.24
		c-8.6-0.37-15.87,6.32-16.23,14.91C219.31,209.99,225.97,217.27,234.58,217.63z"/>
	<path class="st2" d="M307.6,171.86l-4.51-16.03c-0.59-2.06-2.73-3.26-4.79-2.68l-6.46,1.82c-2.06,0.58-3.27,2.72-2.68,4.79
		l3.66,12.96c-2.02,6.99-10.11,24.96-41.99,44.5c-5.4,2.82-11.45,5.93-17.87,9.81c-50.2,30.33-64.11,74.49-64.11,74.49
		c10.07-16.52,31.79-41.27,50.82-49.11c0,0-53.14,72.44-68.88,137.06c0,0,47.33-88.96,62.94-87.71c15.25,1.22,4.13,74.6,2.53,87.71
		c0,0,18.48-59.54,23.06-88.75c0.04-0.24,7.71-46.62,25.76-72.94c22.89-17.84,31.61-38.41,34.83-49.72l5.03-1.42
		C306.97,176.05,308.17,173.92,307.6,171.86z"/>
</g>
</svg>
